<?xml version="1.0" standalone="no"?>
<!DOCTYPE svg PUBLIC "-//W3C//DTD SVG 20010904//EN"
 "http://www.w3.org/TR/2001/REC-SVG-20010904/DTD/svg10.dtd">
<svg version="1.0" xmlns="http://www.w3.org/2000/svg"
 width="313.000000pt" height="311.000000pt" viewBox="0 0 313.000000 311.000000"
 preserveAspectRatio="xMidYMid meet">

<g transform="translate(0.000000,311.000000) scale(0.100000,-0.100000)"
fill="#00a85a" stroke="none">
<path d="M1236 2704 c-3 -8 -45 -76 -92 -150 -47 -75 -84 -137 -82 -140 3 -2
65 9 139 26 230 52 237 55 177 78 -44 16 -29 28 72 53 117 30 312 24 415 -13
105 -37 165 -71 246 -137 115 -92 189 -201 239 -348 70 -209 45 -441 -65 -623
-39 -64 -42 -81 -19 -104 29 -29 69 -20 96 22 133 201 170 493 92 728 -51 151
-116 255 -230 365 -232 223 -558 295 -871 193 -41 -13 -75 -24 -77 -24 -2 0
-7 20 -10 45 -7 46 -19 58 -30 29z"/>
<path d="M890 2283 c-41 -64 -89 -191 -106 -281 -41 -213 7 -465 122 -638 225
-339 639 -479 1020 -344 32 11 59 18 62 16 2 -3 6 -23 9 -45 3 -23 8 -41 12
-41 7 0 185 278 189 296 2 8 1 14 -2 14 -7 0 -307 -69 -328 -76 -28 -8 -21
-21 18 -34 20 -7 32 -16 27 -20 -4 -4 -44 -18 -88 -31 -112 -32 -278 -32 -388
-1 -279 79 -490 304 -547 583 -24 115 -25 181 -4 290 15 82 60 204 96 264 33
55 19 95 -34 95 -23 0 -34 -9 -58 -47z"/>
<path d="M1214 2146 c-17 -8 -42 -29 -55 -47 -35 -49 -34 -156 1 -217 78 -138
239 -65 240 108 0 67 -23 117 -69 147 -38 26 -72 28 -117 9z"/>
<path d="M1561 2139 c-100 -51 -123 -221 -43 -327 29 -41 78 -72 111 -72 40 0
104 45 130 90 33 58 40 163 16 225 -34 89 -129 127 -214 84z"/>
<path d="M1944 2146 c-51 -23 -78 -71 -82 -146 -4 -78 24 -142 77 -177 43 -29
69 -29 112 0 96 63 107 244 19 309 -34 25 -88 31 -126 14z"/>
<path d="M1119 1779 c-24 -15 -56 -31 -71 -34 -15 -4 -35 -16 -43 -28 -20 -29
-20 -93 1 -101 20 -7 222 -8 249 0 11 3 27 20 35 37 12 24 28 37 73 54 90 34
94 40 47 74 l-40 29 -40 -20 c-48 -25 -73 -25 -126 -1 l-42 19 -43 -29z"/>
<path d="M1852 1781 c-40 -26 -41 -28 -24 -44 10 -9 38 -23 62 -32 50 -18 79
-40 91 -72 8 -22 13 -23 149 -23 l140 0 0 50 c0 27 -6 54 -12 59 -7 6 -47 28
-89 50 l-75 38 -35 -18 c-44 -24 -81 -24 -128 0 l-38 20 -41 -28z"/>
<path d="M1465 1715 c-16 -14 -52 -32 -78 -41 -55 -18 -72 -41 -81 -106 -7
-44 -5 -48 16 -53 13 -3 160 -4 328 -3 l305 3 3 37 c4 42 -21 108 -40 108 -14
0 -123 52 -149 71 -13 10 -25 8 -61 -9 -55 -27 -102 -28 -153 -2 -49 25 -53
25 -90 -5z"/>
<path d="M580 1075 c-25 -8 -67 -25 -95 -39 -27 -13 -77 -30 -110 -38 -56 -12
-60 -15 -63 -43 -2 -16 13 -118 33 -225 20 -107 39 -211 42 -230 10 -60 15
-62 127 -55 91 6 121 3 291 -30 105 -20 260 -51 346 -70 230 -52 225 -52 527
61 141 53 275 105 297 116 48 24 412 296 472 354 35 33 43 47 43 75 0 54 -20
74 -72 73 -34 -1 -72 -17 -175 -73 -85 -47 -161 -80 -216 -95 -47 -13 -90 -27
-97 -31 -8 -5 -9 -22 -5 -54 5 -38 2 -52 -17 -81 -54 -80 -153 -96 -405 -65
-87 11 -167 15 -201 11 -110 -12 -107 -13 -107 9 0 45 126 56 330 29 153 -20
275 -15 313 13 20 15 28 30 30 60 4 52 -23 86 -85 108 -70 24 -242 45 -374 45
l-115 0 -125 54 c-68 30 -150 66 -181 80 -120 54 -305 72 -408 41z"/>
</g>
</svg>
